<?xml version="1.0" encoding="iso-8859-1"?>
<!-- Generator: Adobe Illustrator 18.0.0, SVG Export Plug-In . SVG Version: 6.00 Build 0)  -->
<!DOCTYPE svg PUBLIC "-//W3C//DTD SVG 1.1//EN" "http://www.w3.org/Graphics/SVG/1.1/DTD/svg11.dtd">
<svg version="1.1" id="Capa_1" xmlns="http://www.w3.org/2000/svg" xmlns:xlink="http://www.w3.org/1999/xlink" x="0px" y="0px"
	 viewBox="0 0 489.248 489.248" style="enable-background:new 0 0 489.248 489.248;" xml:space="preserve">
<g>
	<path d="M296.591,78.286c0.747,27.44,23.101,49.47,50.716,49.47c27.621,0,49.982-22.041,50.718-49.491
		c-0.069,0.001-0.133,0.021-0.204,0.021H296.591z"/>
	<path d="M296.492,62.088h101.329c5.567,0,10.075-4.507,10.075-10.068c0-5.567-4.508-10.075-10.075-10.075h-0.91
		c-2.474-11.831-9.097-22.1-18.228-29.347l-3.157,9.883c-0.831,2.579-3.219,4.224-5.79,4.224c-0.609,0-1.234-0.095-1.851-0.285
		c-3.195-1.028-4.959-4.445-3.939-7.64l4.022-12.585c-4.009-1.813-8.23-3.208-12.713-3.928v15.991c0,4.477-3.622,8.099-8.099,8.099
		c-4.476,0-8.099-3.622-8.099-8.099V2.268c-4.483,0.72-8.703,2.117-12.712,3.93l4.021,12.583c1.021,3.195-0.743,6.612-3.939,7.64
		c-0.617,0.19-1.242,0.285-1.851,0.285c-2.571,0-4.959-1.645-5.789-4.224l-3.157-9.878c-9.128,7.247-15.75,17.514-18.229,29.342
		h-0.91c-5.568,0-10.077,4.508-10.077,10.075C286.415,57.581,290.924,62.088,296.492,62.088z"/>
	<path d="M477.1,286.315h-23.634l-34.007-104.572v-12.678c0-12.409-6.872-23.624-17.938-29.255
		c-5.503-2.816-11.72-4.318-17.945-4.318c-4.255,0-8.462,0.687-12.504,2.031c-3.557,1.192-6.8,3.04-9.852,5.158h-27.828
		c-3.049-2.116-6.287-3.962-9.837-5.15c-4.058-1.352-8.264-2.039-12.528-2.039c-6.208,0-12.417,1.494-17.945,4.318
		c-11.063,5.647-17.931,16.854-17.931,29.255v12.71l-34.006,104.54H226.6c-0.314-3.188-2.915-5.711-6.185-5.711h-7.174
		c2.705-23.93,10.466-45.61,22.131-62.574c1.795-2.603,1.383-6.13-0.958-8.249c-2.34-2.121-5.893-2.184-8.304-0.143
		c-18.354,15.514-31.429,41.1-35.25,70.966h-7.11c-3.27,0-5.87,2.523-6.184,5.711h-5.514c-6.707,0-12.148,5.441-12.148,12.148
		c0,6.707,5.441,12.148,12.148,12.148h5.516c0.316,3.184,2.915,5.702,6.182,5.702h7.109c3.82,29.859,16.895,55.446,35.243,70.968
		c2.411,2.04,5.963,1.976,8.304-0.143c2.34-2.121,2.752-5.647,0.965-8.249c-11.673-16.965-19.429-38.647-22.133-62.576h7.176
		c3.267,0,5.867-2.518,6.183-5.702h15.215c2.896,4.993,7.494,9.023,13.418,10.946c2.491,0.815,5.03,1.202,7.522,1.202
		c4.58,0,8.928-1.475,12.733-3.84c1.242,9.126,7.449,16.622,15.864,19.688v125.009c0,12.9,10.464,23.364,23.364,23.364
		c12.908,0,23.363-10.457,23.363-23.364v-123.45h18.46v123.45c0,12.9,10.461,23.364,23.361,23.364
		c12.9,0,23.364-10.464,23.364-23.364V338.607c8.386-3.057,14.584-10.51,15.855-19.595c5.871,3.644,13.188,4.863,20.265,2.545
		c5.924-1.923,10.522-5.954,13.418-10.946H477.1c6.706,0,12.148-5.441,12.148-12.148C489.248,291.756,483.806,286.315,477.1,286.315
		z M291.35,171.446v-2.38c0-6.256,3.512-11.982,9.088-14.829c3.315-1.685,6.944-2.547,10.59-2.547c2.492,0,4.983,0.403,7.386,1.202
		c5.932,1.984,10.82,6.264,13.573,11.879l7.077,15.008l0.051,51.743H291.35V171.446z M291.35,263.917h47.795l0.014,13.785h-47.81
		V263.917z M299.695,323.969c-4.603,0-8.345-3.742-8.345-8.343v-5.016h47.841l0.013,13.358H299.695z M403.262,315.626
		c0,4.601-3.74,8.343-8.344,8.343h-39.517l-0.013-13.358h47.874V315.626z M403.262,277.702h-47.905l-0.014-13.785h47.919V277.702z
		 M403.262,171.446v60.076h-47.95l-0.05-51.705l7.364-15.047c2.751-5.615,7.64-9.895,13.571-11.879
		c2.405-0.799,4.897-1.202,7.379-1.202c3.654,0,7.284,0.862,10.598,2.555c5.576,2.839,9.087,8.566,9.087,14.821V171.446z"/>
	<path d="M122.045,428.446c0-4.825,1.588-9.61,4.499-13.508l15.357-20.468l-4.158-4.176c-0.988-0.989-1.621-2.278-1.794-3.669
		l-6.54-52.524c-0.181-1.448-0.854-2.784-1.914-3.789l-34.846-33.043c-1.726-1.638-4.225-2.161-6.472-1.361
		c-2.236,0.807-3.836,2.808-4.119,5.173l-4.232,34.514c-0.206,1.708-1.101,3.257-2.476,4.287l-25.672,19.203
		c-1.384,1.035-2.286,2.594-2.483,4.31l-5.655,47.737c-0.293,2.477-2.017,4.541-4.39,5.284l-21.915,6.801
		c-2.184,0.68-3.83,2.483-4.295,4.721L0.136,479.379c-0.395,1.858,0.08,3.796,1.273,5.267c1.195,1.478,2.998,2.334,4.896,2.334H70.7
		l17.353-12.971l33.993-25.413V428.446z"/>
	<path d="M222.851,440.348c-0.387-0.807-0.941-1.525-1.629-2.103L193.96,415.23c-0.023-0.023-0.054-0.04-0.077-0.063l-24.233-19.758
		c-1.133-0.924-2.54-1.423-3.987-1.423c-0.254,0-0.506,0.016-0.759,0.048c-1.701,0.205-3.251,1.099-4.28,2.476l-21.124,28.148
		c-0.814,1.091-1.256,2.42-1.256,3.788v25.111c0,1.984-0.941,3.86-2.53,5.046L97.748,486.98h78.836h58.478
		c2.159,0,4.178-1.108,5.331-2.935c1.154-1.835,1.289-4.129,0.365-6.082L222.851,440.348z"/>
</g>
<g>
</g>
<g>
</g>
<g>
</g>
<g>
</g>
<g>
</g>
<g>
</g>
<g>
</g>
<g>
</g>
<g>
</g>
<g>
</g>
<g>
</g>
<g>
</g>
<g>
</g>
<g>
</g>
<g>
</g>
</svg>
